Coordinates
version=1
nRows=26
nColumns=24
inDegrees=yes

Units are S.I. units (second, meters, Newtons, ...)
Angles are in degrees.

endheader
time	pelvis_tilt	pelvis_list	pelvis_rotation	pelvis_tx	pelvis_ty	pelvis_tz	hip_flexion_r	hip_adduction_r	hip_rotation_r	knee_angle_r	ankle_angle_r	subtalar_angle_r	mtp_angle_r	hip_flexion_l	hip_adduction_l	hip_rotation_l	knee_angle_l	ankle_angle_l	subtalar_angle_l	mtp_angle_l	lumbar_extension	lumbar_bending	lumbar_rotation
      4.37500000	    -10.90687721	      4.46017580	     -3.78940467	     -0.84794009	     -0.02129843	     -0.75908701	     17.67585702	     -6.14167962	     -2.81175976	    -61.84092144	    -27.31966539	    -15.70364947	      3.20045768	     28.45066329	      5.18295441	    -11.22437680	    -25.21173427	      2.65879916	    -10.11419480	      4.07967255	      8.12680774	     -4.71580111	      2.42108553
      4.38000000	    -11.10520323	      4.38120005	     -3.69744173	     -0.84255890	     -0.02070980	     -0.75955582	     18.82164805	     -6.05392335	     -2.87057548	    -62.90062588	    -26.83876259	    -16.47374519	      2.59130351	     28.15945107	      5.21490828	    -11.10261719	    -24.96382662	      2.88716176	    -10.11116238	      4.11769253	      8.27946924	     -4.62827518	      2.18406088
      4.38500000	    -11.07207491	      4.33229052	     -3.58164918	     -0.83705305	     -0.01979435	     -0.76008054	     19.63651722	     -6.04076817	     -2.93284682	    -63.78830849	    -26.09079017	    -16.94315049	      2.60577353	     27.55762424	      5.31809897	    -10.93900871	    -24.62182898	      3.10657792	     -9.98861283	      4.16227771	      8.20230989	     -4.58748485	      1.90536531
      4.39000000	    -11.24825081	      4.25899765	     -3.47727348	     -0.83165629	     -0.01913620	     -0.76057207	     20.72968964	     -5.97209656	     -3.01692047	    -64.72218036	    -24.99867099	    -17.22981483	      1.28051957	     27.21614680	      5.37045632	    -10.79608013	    -24.32985589	      3.35567148	     -9.94614235	      3.96192488	      8.34406270	     -4.50454229	      1.62268537
      4.39500000	    -11.25049873	      4.15755443	     -3.34756299	     -0.82620757	     -0.01821777	     -0.76114199	     21.55228694	     -5.90783536	     -3.11348355	    -65.43239563	    -24.03198156	    -17.53102436	      1.41825861	     26.64560872	      5.42351291	    -10.61106461	    -23.97154734	      3.58161383	     -9.83556381	      3.99738530	      8.29755769	     -4.40012811	      1.31538397
      4.40000000	    -11.30880292	      4.04409217	     -3.21528469	     -0.82079534	     -0.01733398	     -0.76170933	     22.42511978	     -5.82153646	     -3.19818953	    -66.06712916	    -22.92061233	    -17.67865302	      1.53389674	     26.13485087	      5.45908580	    -10.41950467	    -23.60332634	      3.76485647	     -9.75821765	      3.99126979	      8.31159736	     -4.27608436	      1.01508364
      4.40500000	    -11.36935397	      3.90919227	     -3.09086689	     -0.81539982	     -0.01641421	     -0.76226976	     23.27912628	     -5.70453407	     -3.27577062	    -66.60648626	    -21.72443084	    -17.72828631	      1.61748253	     25.62142596	      5.46751532	    -10.23913215	    -23.22224836	      3.90434010	     -9.71052483	      3.93591336	      8.32740541	     -4.12480902	      0.74926113
      4.41000000	    -11.38820842	      3.78703662	     -2.97368675	     -0.80998533	     -0.01545589	     -0.76283277	     24.07937150	     -5.61121874	     -3.36751285	    -67.06331312	    -20.58376650	    -17.79580577	      1.73894209	     25.03571266	      5.49132282	    -10.05530471	    -22.79352890	      4.08416709	     -9.62498969	      3.90995556	      8.30675341	     -3.98457130	      0.46972314
      4.41500000	    -11.39835234	      3.64743376	     -2.84730972	     -0.80456954	     -0.01445935	     -0.76340548	     24.83849116	     -5.49845928	     -3.45605597	    -67.41908189	    -19.40114837	    -17.75859755	      1.87874638	     24.43326671	      5.49745775	     -9.87533211	    -22.34880546	      4.22446706	     -9.54634917	      3.86702912	      8.27741243	     -3.82594737	      0.19715222
      4.42000000	    -11.38774820	      3.51111647	     -2.71914205	     -0.79914019	     -0.01343280	     -0.76398289	     25.55492694	     -5.39532813	     -3.55315585	    -67.68601628	    -18.26366937	    -17.70137286	      2.02260732	     23.79254604	      5.50784997	     -9.70223168	    -21.87243773	      4.34218462	     -9.47055730	      3.81521396	      8.23020888	     -3.66805164	     -0.06929704
      4.42500000	    -11.35630638	      3.37608644	     -2.58839913	     -0.79369144	     -0.01238624	     -0.76455913	     26.22622267	     -5.29826837	     -3.65686476	    -67.86373165	    -17.19457632	    -17.64218578	      2.17016301	     23.11323978	      5.52072410	     -9.52575300	    -21.36547770	      4.44791314	     -9.39853906	      3.75997795	      8.16507173	     -3.51235564	     -0.32910060
      4.43000000	    -11.30082591	      3.24608839	     -2.45630499	     -0.78822248	     -0.01133257	     -0.76514565	     26.85010597	     -5.21494524	     -3.76936810	    -67.95733714	    -16.20281804	    -17.58287463	      2.31981188	     22.39424587	      5.54146437	     -9.34293892	    -20.83260485	      4.54534883	     -9.33713250	      3.69968042	      8.07963640	     -3.35868012	     -0.58874851
      4.43500000	    -11.23108626	      3.12624570	     -2.32212038	     -0.78276019	     -0.01030682	     -0.76574254	     27.44501470	     -5.15236786	     -3.89486842	    -67.97797284	    -15.30776448	    -17.56204924	      2.47186274	     21.65162658	      5.57304106	     -9.15255881	    -20.28235657	      4.65602206	     -9.27374044	      3.65307547	      7.98103280	     -3.21361463	     -0.84095572
      4.44000000	    -11.12307295	      3.00083287	     -2.18311652	     -0.77726203	     -0.00921736	     -0.76631448	     27.95876844	     -5.08535160	     -4.02588603	    -67.89330089	    -14.46709836	    -17.53065016	      2.62398525	     20.85629583	      5.59740578	     -8.96938001	    -19.70994109	      4.69604353	     -9.24093156	      3.56745514	      7.84915570	     -3.06624524	     -1.11085390
      4.44500000	    -11.01192838	      2.89365739	     -2.04888610	     -0.77176394	     -0.00819883	     -0.76688467	     28.46157979	     -5.04792966	     -4.17291811	    -67.74804735	    -13.72695849	    -17.56908384	      2.76562545	     20.05238919	      5.63758098	     -8.77221901	    -19.12898114	      4.77088231	     -9.19784338	      3.49381593	      7.72052888	     -2.93767011	     -1.35786921
      4.45000000	    -10.88689351	      2.79055761	     -1.90559948	     -0.76624096	     -0.00719385	     -0.76745978	     28.91746917	     -5.01790776	     -4.32215517	    -67.51409802	    -13.04314105	    -17.62667933	      2.90350462	     19.22697472	      5.68162257	     -8.57420973	    -18.53546926	      4.84333217	     -9.16002015	      3.41073809	      7.57454977	     -2.80817612	     -1.60529855
      4.45500000	    -10.72837649	      2.68177012	     -1.76285570	     -0.76070558	     -0.00616098	     -0.76801477	     29.30281171	     -4.97937718	     -4.47209062	    -67.18446562	    -12.40549737	    -17.70851958	      3.04351219	     18.36202366	      5.71404928	     -8.38981733	    -17.93538147	      4.87191633	     -9.13361060	      3.28644862	      7.40125367	     -2.67376835	     -1.86632451
      4.46000000	    -10.59110993	      2.59361087	     -1.62185108	     -0.75516728	     -0.00523620	     -0.76854909	     29.70009095	     -4.96624561	     -4.62644987	    -66.79804618	    -11.80790772	    -17.82881438	      3.17059480	     17.52435962	      5.75751972	     -8.21539651	    -17.34458786	      4.93715721	     -9.06605915	      3.18363321	      7.25298461	     -2.56170461	     -2.11288595
      4.46500000	    -10.44731824	      2.51171266	     -1.48178329	     -0.74962045	     -0.00436433	     -0.76907021	     30.06792488	     -4.96182998	     -4.78374250	    -66.33924113	    -11.23438303	    -17.95536926	      3.28432860	     16.67773599	      5.80124412	     -8.04234980	    -16.75183667	      5.02407238	     -8.98126129	      3.09396474	      7.10378786	     -2.45650662	     -2.35129174
      4.47000000	    -10.31191577	      2.43523951	     -1.34686201	     -0.74408039	     -0.00355738	     -0.76956797	     30.42367155	     -4.95909200	     -4.93478100	    -65.80700249	    -10.67530223	    -18.09467232	      3.37756216	     15.84426910	      5.83939838	     -7.88809574	    -16.16489049	      5.11271216	     -8.87158491	      3.01828223	      6.96469705	     -2.35289398	     -2.58400817
      4.47500000	    -10.15702848	      2.34813673	     -1.20471953	     -0.73852855	     -0.00274986	     -0.77004758	     30.71746888	     -4.94220026	     -5.08749555	    -65.17809336	    -10.11139744	    -18.22870508	      3.45092924	     14.99477936	      5.85859614	     -7.75800682	    -15.58704138	      5.18002771	     -8.74022386	      2.93801072	      6.80562788	     -2.24203434	     -2.83432717
      4.48000000	    -10.02393402	      2.27608898	     -1.06534252	     -0.73299786	     -0.00205232	     -0.77051296	     31.02175031	     -4.94225481	     -5.23811884	    -64.49053744	     -9.55977653	    -18.36953683	      3.48624219	     14.17706213	      5.88444563	     -7.63682499	    -15.02216095	      5.27809654	     -8.57670290	      2.88746961	      6.67006387	     -2.14459933	     -3.07055883
      4.48500000	     -9.90700189	      2.20908142	     -0.92789535	     -0.72748949	     -0.00145197	     -0.77094367	     31.32493792	     -4.94812377	     -5.39447260	    -63.73910465	     -9.01319946	    -18.50615396	      3.48034626	     13.38566310	      5.90518303	     -7.52548921	    -14.47122981	      5.39575529	     -8.38850859	      2.86580469	      6.54871538	     -2.05391263	     -3.30344414
      4.49000000	     -9.80304239	      2.14597898	     -0.78803036	     -0.72200323	     -0.00092533	     -0.77137537	     31.61650523	     -4.95663771	     -5.54470915	    -62.91120012	     -8.48322963	    -18.63931593	      3.42945003	     12.61978675	      5.92371974	     -7.42011217	    -13.93875934	      5.52019751	     -8.17595197	      2.86720501	      6.44129464	     -1.96376451	     -3.53218980
      4.49500000	     -9.69794317	      2.07437126	     -0.64477592	     -0.71654321	     -0.00045407	     -0.77178128	     31.87644158	     -4.95709251	     -5.70564244	    -62.00332391	     -7.97098149	    -18.76437885	      3.31742816	     11.86678139	      5.92407959	     -7.33894420	    -13.42777482	      5.64244352	     -7.94702356	      2.88379695	      6.32726791	     -1.86791980	     -3.77190692
      4.50000000	     -9.61379924	      2.01140875	     -0.50216000	     -0.71111745	     -0.00008404	     -0.77217026	     32.14016502	     -4.96618654	     -5.86735889	    -61.03083620	     -7.48866861	    -18.88939042	      3.14116434	     11.15211651	      5.92697554	     -7.26933882	    -12.94095967	      5.77558986	     -7.70897904	      2.92138658	      6.23153133	     -1.77966521	     -4.00460697
